<?xml version="1.0" encoding="UTF-8"?><svg id="uuid-09053f53-ddf3-40c7-b909-f643204bf092" xmlns="http://www.w3.org/2000/svg" viewBox="0 0 672.35 208.92"><g id="uuid-6f23e246-1ac1-4fa7-9abb-42d7b83c6141"><path d="M237.06,121.82v33.25h24.38v-6.25h-17.73v-27h-6.65Zm39.22,33.25l13.3-33.25h6.65l13.27,33.23h-7.07l-2-5.1h-15.06l-2,5.1-7.09,.02Zm16.8-24.38l-5.05,12.63h10l-4.92-12.63h-.03Zm38.66-2.24h9.38c2.63,.09,4,.95,4.05,2.57-.08,2.72-1.44,4.1-4.12,4.15h-9.31v-6.72Zm0,13.3h10.93c3.07,.09,4.64,1.19,4.72,3.33-.08,3.16-1.67,4.76-4.79,4.8h-10.86v-8.13h0Zm19.84-10.13c-.31-6.19-3.27-9.44-8.87-9.77h-17.64v33.22h18.71c6.39-.37,9.72-3.69,10-9.95-.2-3.14-1.94-5.99-4.64-7.6,1.5-1,2.29-3,2.4-5.92l.04,.02Zm34.91,23.45c-8.99-.19-16.12-7.63-15.93-16.62,.19-8.99,7.63-16.12,16.62-15.93s16.12,7.63,15.93,16.62c-.09,4.2-1.79,8.19-4.76,11.16-3.12,3.16-7.42,4.89-11.86,4.77Zm0-6.2c2.72,.09,5.34-1,7.18-3,3.68-4.27,3.68-10.58,0-14.85-3.97-3.98-10.42-3.99-14.4-.01,0,0,0,0-.01,.01-3.69,4.26-3.69,10.59,0,14.85,1.86,2.01,4.5,3.1,7.23,3Zm39.3-13.75h9.31c2.67-.04,4.04-1.26,4.13-3.65-.08-2.19-1.43-3.32-4.06-3.41h-9.38v7.06h0Zm13.44,5.44l8.29,14.49h-7.63l-8-13.74h-6.08v13.74h-6.65v-33.23h14.5c7.76,0,11.64,3.19,11.64,9.58,0,4.8-2.05,7.86-6.12,9.18l.05-.02Zm21.11,14.49l13.26-33.23h6.63l13.27,33.23h-7.07l-2-5.1h-15.05l-2,5.1h-7.04Zm16.8-24.38l-5,12.63h10l-4.92-12.63h-.08Zm30.78-8.85v6.21h11.08v27h6.64v-27h11.08v-6.21h-28.8Zm59.8,33.25c-9-.18-16.15-7.62-15.97-16.62,.18-9,7.62-16.15,16.62-15.97,9,.18,16.15,7.62,15.97,16.62-.08,4.21-1.79,8.22-4.77,11.2-3.12,3.16-7.41,4.89-11.85,4.77Zm0-6.2c2.72,.1,5.34-1,7.18-3,3.69-4.26,3.69-10.59,0-14.85-3.96-3.98-10.39-3.99-14.37-.03-.01,.01-.02,.02-.03,.03-3.69,4.26-3.69,10.59,0,14.85,1.85,2,4.49,3.1,7.22,3h0Zm39.31-13.75h9.31c2.67,0,4-1.26,4.12-3.65-.07-2.19-1.43-3.33-4-3.41h-9.38v7.06h-.05Zm13.37,5.46l8.29,14.49h-7.63l-8-13.74h-6.07v13.74h-6.65v-33.25h14.49c7.76,0,11.64,3.19,11.64,9.58,0,4.8-2.04,7.86-6.11,9.18h.04Zm20.93-18.76h7.8l7.71,10.87,7.89-10.87h7.62l-12.18,16.63v16.62h-6.65v-16.64l-12.19-16.61Z" fill="#fff" fill-rule="evenodd"/></g><g id="uuid-b7683a47-6da9-40d9-8b00-64418316a46d"><path d="M281.37,109.56l-21.71-27.67,18.77-27.07h-12.2l-18.71,26.15v-26.15h-10.46v54.75h10.41v-26.94l21.26,26.93h12.64Zm48.7,0h11.78l-20-54.75h-13.46l-19.93,54.75h11.77l3.5-9.68h22.93l3.45,9.68h-.04Zm-23.21-19l8.37-24.74,8.27,24.68-16.64,.06Zm87.72,19l-13.88-17.59,1.79-.72c7.77-3.14,11.44-8.84,11.44-17.19,.03-2.41-.39-4.81-1.22-7.08-.66-1.85-1.63-3.57-2.88-5.09-1.19-1.33-2.56-2.48-4.09-3.4-1.37-.89-2.84-1.6-4.38-2.14-1.38-.45-2.79-.8-4.22-1.05-.99-.2-1.99-.35-3-.45h-22.8v54.75h10.4v-16.37h7.82l13.52,16.33h11.5Zm-32.84-45.69h10.94c2.57-.1,5.09,.8,7,2.53,2.12,2,2.75,4.86,2.75,7.66s-.62,5.68-2.76,7.64c-1.92,1.68-4.4,2.56-6.95,2.47h-10.98v-20.3h0Zm53.63-9.05h-10.41v54.75h37.27v-9.35h-26.86V54.82Zm42.27,38.82l-8,6.1c.51,.84,1.08,1.64,1.7,2.39,1.21,1.39,2.55,2.65,4,3.78,1.98,1.5,4.22,2.62,6.61,3.31,3.02,.91,6.16,1.36,9.32,1.32,3.4,.06,6.79-.49,10-1.63,2.44-.83,4.65-2.22,6.46-4.05,1.38-1.47,2.51-3.16,3.33-5,.64-1.45,.98-3.02,1-4.61,.07-2.75-.65-5.45-2.08-7.8-1.23-2.04-3-3.7-5.11-4.8-2.33-1.15-4.74-2.16-7.2-3-2.37-.83-4.78-1.59-7.22-2.2-2.21-.51-4.31-1.44-6.17-2.74-1.75-1.11-2.84-3.02-2.89-5.1,.05-1.83,1.07-3.5,2.67-4.4,1.66-1.05,3.59-1.58,5.55-1.53,5,0,9.95,1.23,13,5.24l7.17-5.5-.06-.1h0c-.54-.94-1.22-1.8-2-2.56-1.13-1.17-2.38-2.22-3.72-3.15-1.78-1.16-3.72-2.04-5.77-2.6-2.6-.77-5.29-1.16-8-1.14-3.29-.07-6.56,.49-9.65,1.63-2.28,.79-4.31,2.17-5.88,4-1.21,1.51-2.18,3.19-2.87,5-.54,1.43-.84,2.95-.86,4.48-.08,2.81,.65,5.59,2.09,8,1.25,2.09,3.02,3.81,5.15,5,2.32,1.24,4.72,2.32,7.19,3.24,2.35,.9,4.75,1.68,7.19,2.32,2.15,.5,4.21,1.35,6.1,2.51,1.74,.94,2.85,2.73,2.94,4.7-.02,.63-.19,1.25-.5,1.8-.39,.68-.89,1.3-1.48,1.83-.93,.81-2.03,1.39-3.22,1.69-4.94,1.29-10.2,.44-14.48-2.35-1.64-1.11-3.1-2.46-4.35-4l.04-.08Zm51.36,0l-8,6.1c.5,.84,1.07,1.64,1.7,2.39,1.21,1.39,2.55,2.66,4,3.78,1.98,1.5,4.22,2.62,6.61,3.31,3.02,.91,6.16,1.36,9.31,1.32,3.4,.06,6.79-.49,10-1.63,2.46-.83,4.69-2.24,6.51-4.09,1.39-1.47,2.51-3.16,3.34-5,.64-1.45,.98-3.02,1-4.61,.07-2.75-.65-5.45-2.08-7.8-1.24-2.04-3.01-3.7-5.12-4.8-2.33-1.15-4.73-2.15-7.19-3-2.38-.83-4.79-1.59-7.23-2.2-2.21-.51-4.3-1.44-6.16-2.74-1.76-1.11-2.84-3.02-2.89-5.1,.05-1.83,1.06-3.5,2.66-4.4,1.66-1.04,3.59-1.58,5.55-1.53,5,0,10,1.23,13,5.24l7.17-5.5-.05-.1h0c-.54-.94-1.21-1.81-2-2.56-1.13-1.17-2.38-2.22-3.71-3.15-1.78-1.16-3.73-2.04-5.78-2.6-2.6-.77-5.29-1.16-8-1.14-3.29-.07-6.56,.49-9.65,1.63-2.28,.8-4.3,2.18-5.88,4-1.21,1.51-2.17,3.19-2.86,5-.55,1.43-.84,2.95-.86,4.48-.08,2.81,.64,5.59,2.08,8,1.25,2.09,3.03,3.81,5.15,5,2.32,1.24,4.72,2.32,7.19,3.24,2.36,.9,4.76,1.68,7.2,2.32,2.15,.51,4.21,1.35,6.1,2.51,1.73,.94,2.85,2.73,2.93,4.7-.01,.63-.18,1.24-.49,1.79-.39,.69-.89,1.31-1.48,1.84-.93,.81-2.04,1.39-3.23,1.69-4.94,1.29-10.19,.44-14.47-2.35-1.64-1.11-3.1-2.46-4.35-4l-.02-.04Zm53.06-31.5c-11.1,10.71-11.41,28.39-.7,39.49,.23,.24,.46,.47,.7,.7,11.61,11.16,29.96,11.16,41.57,0,11.1-10.77,11.37-28.5,.6-39.59-.2-.2-.39-.4-.6-.6-11.66-11.06-29.92-11.06-41.58,0h.01Zm33.82,6.61c7.09,7.59,7.09,19.36,0,26.95-6.8,7.2-18.14,7.53-25.35,.73-.25-.24-.5-.48-.73-.73-7.1-7.57-7.1-19.37,0-26.94,6.9-7.2,18.34-7.44,25.54-.53,.18,.17,.36,.35,.53,.53h.01Zm76.47-13.94h-10.42v37.34l-27.36-37.34h-10.34v54.75h10.4v-36l26.58,36h11.14V54.82Z" fill="#fff" fill-rule="evenodd"/></g><g id="uuid-f8983b24-afd3-44fd-a636-8091a766d521"><rect x="197.02" width="4.28" height="208.92" fill="#fff"/></g><g id="uuid-ffc8f5ef-fce6-4109-8cb8-1d8b09e216fe"><path d="M170.94,104.46c-.02,47.2-38.3,85.45-85.51,85.43C38.23,189.87-.02,151.59,0,104.39,.02,57.18,38.3,18.93,85.51,18.95c22.67,0,44.41,9.03,60.43,25.07,16.05,16.02,25.04,37.77,25,60.44Zm-32.94,52.53c29.01-29.01,29.01-76.05,0-105.06-29.01-29.01-76.05-29.01-105.06,0-29.01,29.01-29.01,76.05,0,105.06,13.93,13.93,32.83,21.76,52.53,21.76,19.71,.02,38.61-7.81,52.53-21.76Z" fill="#fff" fill-rule="evenodd"/></g><g id="uuid-7de7a342-ccb3-4c49-ac2e-00b03f0f50d8"><path d="M25.1,164.72c-33.21-33.39-33.39-87.29-.39-120.9C58.9,9.63,135.56,9.92,102.47,52.12c-5.81,7.41-16.07,14.31-27.44,21.95-12.88,8.65-27.32,18.36-36.76,30.38,9.45,12,23.89,21.73,36.76,30.38,11.37,7.64,21.63,14.54,27.44,21.95,30.19,38.5-39.47,45.83-77.37,7.94h0Zm6.7-49.9c-28,60.07,86.56,80.29,61.89,48.82-4.7-6-14.27-12.43-24.86-19.55-12.65-8.5-26.62-17.89-37-29.27h-.03Zm-8-10.36c-5.21-7.96-7.93-17.29-7.83-26.8-3.16,8.52-4.76,17.54-4.74,26.63-.01,8.92,1.59,17.77,4.73,26.12,.06-9.22,2.78-18.23,7.83-25.95h0Zm8-10.37c10.43-11.38,24.43-20.78,37.03-29.27,10.59-7.12,20.16-13.55,24.86-19.54C118.1,14.13,2.23,30.63,31.8,94.09h0Z" fill="#fff" fill-rule="evenodd"/></g></svg>